<?xml version="1.0" encoding="UTF-8"?>
<!-- SPDX-FileCopyrightText: 2026 VisorCraft LLC -->
<!-- SPDX-License-Identifier: GPL-3.0-only -->
<svg xmlns="http://www.w3.org/2000/svg" width="512" height="512" viewBox="0 0 512 512" role="img" aria-label="LinSync icon option 1, twin panes">
  <defs>
    <linearGradient id="leftPane" x1="116" y1="112" x2="226" y2="398" gradientUnits="userSpaceOnUse">
      <stop offset="0" stop-color="#edf8ff"/>
      <stop offset="1" stop-color="#c9ddf2"/>
    </linearGradient>
    <linearGradient id="rightPane" x1="286" y1="112" x2="396" y2="398" gradientUnits="userSpaceOnUse">
      <stop offset="0" stop-color="#f2fff5"/>
      <stop offset="1" stop-color="#c9ecd0"/>
    </linearGradient>
    <linearGradient id="blue" x1="110" y1="176" x2="292" y2="176" gradientUnits="userSpaceOnUse">
      <stop offset="0" stop-color="#38bdf8"/>
      <stop offset="1" stop-color="#2d7ff9"/>
    </linearGradient>
    <linearGradient id="green" x1="220" y1="336" x2="402" y2="336" gradientUnits="userSpaceOnUse">
      <stop offset="0" stop-color="#24d18b"/>
      <stop offset="1" stop-color="#9ee55b"/>
    </linearGradient>
    <filter id="shadow" x="-20%" y="-20%" width="140%" height="150%" color-interpolation-filters="sRGB">
      <feDropShadow dx="0" dy="16" stdDeviation="18" flood-color="#020617" flood-opacity="0.42"/>
    </filter>
  </defs>

  <g transform="translate(256 256) scale(1.14) translate(-256 -256)">
    <g filter="url(#shadow)">
      <rect x="112" y="104" width="122" height="304" rx="22" fill="url(#leftPane)"/>
      <rect x="278" y="104" width="122" height="304" rx="22" fill="url(#rightPane)"/>
      <rect x="137" y="140" width="72" height="15" rx="7.5" fill="#61738f" opacity="0.5"/>
      <rect x="303" y="140" width="72" height="15" rx="7.5" fill="#57745e" opacity="0.5"/>
      <rect x="137" y="360" width="72" height="15" rx="7.5" fill="#61738f" opacity="0.42"/>
      <rect x="303" y="360" width="72" height="15" rx="7.5" fill="#57745e" opacity="0.42"/>
    </g>

    <path d="M119 215h199" fill="none" stroke="url(#blue)" stroke-width="40" stroke-linecap="round"/>
    <path d="M291 176l42 39-42 39" fill="none" stroke="url(#blue)" stroke-width="40" stroke-linecap="round" stroke-linejoin="round"/>
    <path d="M393 297H194" fill="none" stroke="url(#green)" stroke-width="40" stroke-linecap="round"/>
    <path d="M221 258l-42 39 42 39" fill="none" stroke="url(#green)" stroke-width="40" stroke-linecap="round" stroke-linejoin="round"/>

    <rect x="244" y="112" width="24" height="288" rx="12" fill="#0b1220" opacity="0.48"/>
    <circle cx="256" cy="215" r="12" fill="#dff8ff"/>
    <circle cx="256" cy="297" r="12" fill="#eaffd8"/>
  </g>
</svg>
